<svg xmlns="http://www.w3.org/2000/svg" xmlns:xlink="http://www.w3.org/1999/xlink" width="1080" zoomAndPan="magnify" viewBox="0 0 810 809.999993" height="1080" preserveAspectRatio="xMidYMid meet" version="1.0"><path fill="#1b1159" d="M 405 0 C 398.371094 0 391.746094 0.164062 385.128906 0.488281 C 378.507812 0.8125 371.898438 1.300781 365.304688 1.949219 C 358.707031 2.601562 352.128906 3.410156 345.574219 4.382812 C 339.019531 5.355469 332.488281 6.488281 325.988281 7.78125 C 319.488281 9.074219 313.023438 10.527344 306.59375 12.136719 C 300.164062 13.746094 293.777344 15.515625 287.433594 17.4375 C 281.09375 19.363281 274.800781 21.441406 268.558594 23.675781 C 262.320312 25.90625 256.136719 28.292969 250.011719 30.828125 C 243.890625 33.367188 237.832031 36.050781 231.839844 38.882812 C 225.847656 41.71875 219.929688 44.699219 214.085938 47.820312 C 208.238281 50.945312 202.472656 54.210938 196.789062 57.621094 C 191.101562 61.027344 185.503906 64.574219 179.992188 68.253906 C 174.484375 71.9375 169.066406 75.753906 163.742188 79.699219 C 158.417969 83.648438 153.195312 87.726562 148.070312 91.929688 C 142.945312 96.136719 137.929688 100.464844 133.019531 104.914062 C 128.109375 109.367188 123.308594 113.933594 118.621094 118.621094 C 113.933594 123.308594 109.367188 128.109375 104.914062 133.019531 C 100.464844 137.929688 96.136719 142.945312 91.929688 148.070312 C 87.726562 153.195312 83.648438 158.417969 79.699219 163.742188 C 75.753906 169.066406 71.9375 174.484375 68.253906 179.992188 C 64.574219 185.503906 61.027344 191.101562 57.621094 196.789062 C 54.210938 202.472656 50.945312 208.238281 47.820312 214.085938 C 44.699219 219.929688 41.71875 225.847656 38.882812 231.839844 C 36.050781 237.832031 33.367188 243.890625 30.828125 250.011719 C 28.292969 256.136719 25.90625 262.320312 23.675781 268.558594 C 21.441406 274.800781 19.363281 281.09375 17.4375 287.433594 C 15.515625 293.777344 13.746094 300.164062 12.136719 306.59375 C 10.527344 313.023438 9.074219 319.488281 7.78125 325.988281 C 6.488281 332.488281 5.355469 339.019531 4.382812 345.574219 C 3.410156 352.128906 2.601562 358.707031 1.949219 365.304688 C 1.300781 371.898438 0.8125 378.507812 0.488281 385.128906 C 0.164062 391.746094 0 398.371094 0 405 C 0 411.628906 0.164062 418.253906 0.488281 424.871094 C 0.8125 431.492188 1.300781 438.101562 1.949219 444.695312 C 2.601562 451.292969 3.410156 457.871094 4.382812 464.425781 C 5.355469 470.980469 6.488281 477.511719 7.78125 484.011719 C 9.074219 490.511719 10.527344 496.976562 12.136719 503.40625 C 13.746094 509.835938 15.515625 516.222656 17.4375 522.566406 C 19.363281 528.90625 21.441406 535.199219 23.675781 541.441406 C 25.90625 547.679688 28.292969 553.863281 30.828125 559.988281 C 33.367188 566.109375 36.050781 572.167969 38.882812 578.160156 C 41.71875 584.152344 44.699219 590.070312 47.820312 595.914062 C 50.945312 601.761719 54.210938 607.527344 57.621094 613.210938 C 61.027344 618.898438 64.574219 624.496094 68.253906 630.007812 C 71.9375 635.515625 75.753906 640.933594 79.699219 646.257812 C 83.648438 651.582031 87.726562 656.804688 91.929688 661.929688 C 96.136719 667.054688 100.464844 672.070312 104.914062 676.980469 C 109.367188 681.890625 113.933594 686.691406 118.621094 691.378906 C 123.308594 696.066406 128.109375 700.632812 133.019531 705.085938 C 137.929688 709.535156 142.945312 713.863281 148.070312 718.070312 C 153.195312 722.273438 158.417969 726.351562 163.742188 730.300781 C 169.066406 734.246094 174.484375 738.0625 179.992188 741.746094 C 185.503906 745.425781 191.101562 748.972656 196.789062 752.378906 C 202.472656 755.789062 208.238281 759.054688 214.085938 762.179688 C 219.929688 765.300781 225.847656 768.28125 231.839844 771.117188 C 237.832031 773.949219 243.890625 776.632812 250.011719 779.171875 C 256.136719 781.707031 262.320312 784.09375 268.558594 786.324219 C 274.800781 788.558594 281.09375 790.636719 287.433594 792.5625 C 293.777344 794.484375 300.164062 796.253906 306.59375 797.863281 C 313.023438 799.472656 319.488281 800.925781 325.988281 802.21875 C 332.488281 803.511719 339.019531 804.644531 345.574219 805.617188 C 352.128906 806.589844 358.707031 807.398438 365.304688 808.050781 C 371.898438 808.699219 378.507812 809.1875 385.128906 809.511719 C 391.746094 809.835938 398.371094 810 405 810 C 411.628906 810 418.253906 809.835938 424.871094 809.511719 C 431.492188 809.1875 438.101562 808.699219 444.695312 808.050781 C 451.292969 807.398438 457.871094 806.589844 464.425781 805.617188 C 470.980469 804.644531 477.511719 803.511719 484.011719 802.21875 C 490.511719 800.925781 496.976562 799.472656 503.40625 797.863281 C 509.835938 796.253906 516.222656 794.484375 522.566406 792.5625 C 528.90625 790.636719 535.199219 788.558594 541.441406 786.324219 C 547.679688 784.09375 553.863281 781.707031 559.988281 779.171875 C 566.109375 776.632812 572.167969 773.949219 578.160156 771.117188 C 584.152344 768.28125 590.070312 765.300781 595.914062 762.179688 C 601.761719 759.054688 607.527344 755.789062 613.210938 752.378906 C 618.898438 748.972656 624.496094 745.425781 630.007812 741.746094 C 635.515625 738.0625 640.933594 734.246094 646.257812 730.300781 C 651.582031 726.351562 656.804688 722.273438 661.929688 718.070312 C 667.054688 713.863281 672.070312 709.535156 676.980469 705.085938 C 681.890625 700.632812 686.691406 696.066406 691.378906 691.378906 C 696.066406 686.691406 700.632812 681.890625 705.085938 676.980469 C 709.535156 672.070312 713.863281 667.054688 718.070312 661.929688 C 722.273438 656.804688 726.351562 651.582031 730.300781 646.257812 C 734.246094 640.933594 738.0625 635.515625 741.746094 630.007812 C 745.425781 624.496094 748.972656 618.898438 752.378906 613.210938 C 755.789062 607.527344 759.054688 601.761719 762.179688 595.914062 C 765.300781 590.070312 768.28125 584.152344 771.117188 578.160156 C 773.949219 572.167969 776.632812 566.109375 779.171875 559.988281 C 781.707031 553.863281 784.09375 547.679688 786.324219 541.441406 C 788.558594 535.199219 790.636719 528.90625 792.5625 522.566406 C 794.484375 516.222656 796.253906 509.835938 797.863281 503.40625 C 799.472656 496.976562 800.925781 490.511719 802.21875 484.011719 C 803.511719 477.511719 804.644531 470.980469 805.617188 464.425781 C 806.589844 457.871094 807.398438 451.292969 808.050781 444.695312 C 808.699219 438.101562 809.1875 431.492188 809.511719 424.871094 C 809.835938 418.253906 810 411.628906 810 405 C 810 398.371094 809.835938 391.75 809.511719 385.128906 C 809.183594 378.507812 808.695312 371.902344 808.046875 365.304688 C 807.394531 358.707031 806.582031 352.132812 805.609375 345.578125 C 804.636719 339.019531 803.503906 332.492188 802.210938 325.992188 C 800.914062 319.492188 799.464844 313.027344 797.851562 306.597656 C 796.242188 300.167969 794.472656 293.78125 792.550781 287.441406 C 790.625 281.097656 788.546875 274.808594 786.3125 268.566406 C 784.078125 262.324219 781.695312 256.144531 779.15625 250.019531 C 776.621094 243.898438 773.933594 237.839844 771.101562 231.847656 C 768.265625 225.859375 765.289062 219.941406 762.164062 214.09375 C 759.039062 208.25 755.773438 202.484375 752.363281 196.800781 C 748.957031 191.113281 745.410156 185.515625 741.730469 180.007812 C 738.046875 174.496094 734.230469 169.078125 730.285156 163.753906 C 726.335938 158.429688 722.257812 153.207031 718.054688 148.085938 C 713.847656 142.960938 709.519531 137.945312 705.070312 133.03125 C 700.617188 128.121094 696.050781 123.324219 691.363281 118.636719 C 686.675781 113.949219 681.878906 109.382812 676.96875 104.929688 C 672.054688 100.480469 667.039062 96.152344 661.914062 91.945312 C 656.792969 87.742188 651.570312 83.664062 646.246094 79.714844 C 640.921875 75.769531 635.503906 71.953125 629.992188 68.269531 C 624.484375 64.589844 618.886719 61.042969 613.199219 57.636719 C 607.515625 54.226562 601.75 50.960938 595.90625 47.835938 C 590.058594 44.710938 584.140625 41.734375 578.152344 38.898438 C 572.160156 36.066406 566.101562 33.378906 559.980469 30.84375 C 553.855469 28.304688 547.671875 25.921875 541.433594 23.6875 C 535.191406 21.453125 528.902344 19.375 522.558594 17.449219 C 516.21875 15.527344 509.832031 13.757812 503.402344 12.148438 C 496.972656 10.535156 490.507812 9.085938 484.007812 7.789062 C 477.507812 6.496094 470.980469 5.363281 464.421875 4.390625 C 457.867188 3.417969 451.292969 2.605469 444.695312 1.953125 C 438.097656 1.304688 431.492188 0.816406 424.871094 0.492188 C 418.25 0.164062 411.628906 0 405 0 Z M 405 151.875 C 407.394531 151.875 409.789062 151.941406 412.183594 152.078125 C 414.574219 152.214844 416.960938 152.421875 419.339844 152.699219 C 421.71875 152.972656 424.089844 153.316406 426.449219 153.730469 C 428.8125 154.144531 431.15625 154.625 433.488281 155.171875 C 435.820312 155.71875 438.136719 156.335938 440.433594 157.015625 C 442.730469 157.699219 445.003906 158.449219 447.257812 159.261719 C 449.511719 160.074219 451.738281 160.953125 453.941406 161.898438 C 456.144531 162.839844 458.320312 163.84375 460.464844 164.914062 C 462.609375 165.980469 464.71875 167.113281 466.800781 168.300781 C 468.878906 169.492188 470.921875 170.742188 472.925781 172.050781 C 474.933594 173.363281 476.902344 174.726562 478.828125 176.148438 C 480.757812 177.574219 482.640625 179.050781 484.484375 180.582031 C 486.328125 182.113281 488.125 183.699219 489.875 185.332031 C 491.625 186.96875 493.328125 188.65625 494.980469 190.390625 C 496.632812 192.125 498.234375 193.902344 499.785156 195.730469 C 501.335938 197.558594 502.832031 199.429688 504.273438 201.34375 C 505.714844 203.253906 507.097656 205.210938 508.429688 207.203125 C 509.757812 209.195312 511.027344 211.226562 512.238281 213.292969 C 513.449219 215.363281 514.601562 217.460938 515.691406 219.59375 C 516.78125 221.730469 517.808594 223.894531 518.769531 226.085938 C 519.734375 228.28125 520.636719 230.5 521.472656 232.742188 C 522.308594 234.988281 523.078125 237.257812 523.785156 239.546875 C 524.488281 241.835938 525.128906 244.144531 525.699219 246.472656 C 526.269531 248.796875 526.773438 251.140625 527.210938 253.496094 C 527.644531 255.851562 528.011719 258.21875 528.3125 260.597656 C 528.609375 262.972656 528.839844 265.355469 529.003906 267.746094 C 529.164062 270.136719 529.253906 272.53125 529.277344 274.925781 C 529.300781 277.324219 529.253906 279.71875 529.136719 282.109375 C 529.019531 284.503906 528.835938 286.890625 528.582031 289.273438 C 528.328125 291.65625 528.003906 294.03125 527.613281 296.394531 C 527.222656 298.757812 526.761719 301.109375 526.234375 303.445312 C 525.707031 305.78125 525.113281 308.101562 524.449219 310.40625 C 523.789062 312.707031 523.0625 314.988281 522.269531 317.25 C 521.472656 319.511719 520.617188 321.746094 519.691406 323.957031 C 518.769531 326.167969 517.78125 328.351562 516.734375 330.503906 C 515.683594 332.660156 514.574219 334.78125 513.402344 336.871094 C 512.230469 338.960938 510.996094 341.015625 509.707031 343.03125 C 508.414062 345.050781 507.066406 347.03125 505.660156 348.96875 C 504.253906 350.910156 502.796875 352.808594 501.28125 354.664062 C 499.765625 356.519531 498.195312 358.332031 496.578125 360.097656 C 494.957031 361.859375 493.285156 363.578125 491.566406 365.246094 C 489.847656 366.914062 488.082031 368.53125 486.269531 370.097656 C 484.453125 371.664062 482.597656 373.175781 480.695312 374.636719 C 478.796875 376.09375 476.855469 377.496094 474.875 378.84375 C 472.890625 380.191406 470.871094 381.480469 468.816406 382.707031 C 466.761719 383.9375 464.667969 385.109375 462.546875 386.214844 C 460.421875 387.324219 458.269531 388.371094 456.082031 389.355469 C 453.898438 390.339844 451.6875 391.261719 449.449219 392.117188 C 447.210938 392.972656 444.949219 393.761719 442.667969 394.488281 C 440.382812 395.214844 438.082031 395.871094 435.761719 396.464844 C 433.4375 397.054688 431.101562 397.582031 428.75 398.039062 C 426.398438 398.496094 424.035156 398.882812 421.660156 399.203125 C 419.285156 399.523438 416.902344 399.773438 414.515625 399.957031 C 412.125 400.140625 409.734375 400.253906 407.335938 400.296875 C 404.941406 400.339844 402.546875 400.316406 400.152344 400.21875 C 397.757812 400.125 395.371094 399.960938 392.984375 399.730469 C 390.601562 399.496094 388.222656 399.195312 385.855469 398.824219 C 383.488281 398.453125 381.136719 398.015625 378.792969 397.507812 C 376.453125 397 374.125 396.425781 371.816406 395.785156 C 369.507812 395.144531 367.222656 394.4375 364.953125 393.664062 C 362.6875 392.890625 360.441406 392.050781 358.222656 391.148438 C 356.003906 390.246094 353.8125 389.277344 351.652344 388.25 C 349.488281 387.21875 347.355469 386.125 345.253906 384.972656 C 343.15625 383.820312 341.089844 382.605469 339.0625 381.332031 C 234.773438 315.265625 279.957031 153.140625 405 151.875 Z M 550.671875 658.125 L 259.328125 658.125 C 257.824219 658.121094 256.324219 658.082031 254.824219 658.007812 C 253.324219 657.929688 251.824219 657.816406 250.332031 657.667969 C 248.835938 657.515625 247.34375 657.332031 245.859375 657.105469 C 244.375 656.882812 242.894531 656.625 241.421875 656.328125 C 239.949219 656.035156 238.484375 655.703125 237.027344 655.335938 C 235.570312 654.96875 234.125 654.566406 232.6875 654.128906 C 231.25 653.691406 229.824219 653.214844 228.410156 652.707031 C 226.996094 652.199219 225.597656 651.660156 224.210938 651.082031 C 222.824219 650.503906 221.449219 649.894531 220.09375 649.25 C 218.738281 648.605469 217.394531 647.929688 216.070312 647.21875 C 214.746094 646.511719 213.441406 645.769531 212.152344 644.996094 C 210.867188 644.222656 209.597656 643.417969 208.351562 642.582031 C 207.101562 641.746094 205.875 640.878906 204.667969 639.984375 C 203.464844 639.085938 202.28125 638.164062 201.121094 637.207031 C 199.960938 636.253906 198.824219 635.273438 197.710938 634.261719 C 196.597656 633.253906 195.511719 632.21875 194.449219 631.152344 C 193.390625 630.089844 192.355469 629.003906 191.347656 627.890625 C 190.335938 626.773438 189.355469 625.636719 188.40625 624.476562 C 187.453125 623.3125 186.527344 622.128906 185.636719 620.921875 C 184.742188 619.714844 183.875 618.488281 183.042969 617.238281 C 182.207031 615.988281 181.40625 614.71875 180.632812 613.429688 C 179.863281 612.140625 179.121094 610.835938 178.414062 609.511719 C 177.707031 608.183594 177.03125 606.84375 176.390625 605.484375 C 175.746094 604.128906 175.136719 602.753906 174.5625 601.367188 C 173.988281 599.980469 173.449219 598.578125 172.941406 597.164062 C 172.4375 595.75 171.964844 594.324219 171.527344 592.886719 C 171.09375 591.449219 170.691406 590 170.328125 588.542969 C 169.960938 587.085938 169.632812 585.621094 169.339844 584.148438 C 169.046875 582.675781 168.789062 581.195312 168.566406 579.707031 C 168.347656 578.222656 168.164062 576.730469 168.015625 575.238281 C 167.867188 573.742188 167.753906 572.246094 167.679688 570.746094 C 167.605469 569.242188 167.570312 567.742188 167.570312 566.242188 C 167.570312 488.40625 224.902344 421.199219 307.167969 390.953125 C 308.859375 392.382812 310.582031 393.777344 312.335938 395.132812 C 314.085938 396.488281 315.871094 397.804688 317.679688 399.082031 C 319.492188 400.359375 321.328125 401.597656 323.195312 402.792969 C 325.058594 403.992188 326.949219 405.148438 328.867188 406.261719 C 330.78125 407.375 332.722656 408.445312 334.683594 409.472656 C 336.648438 410.503906 338.632812 411.488281 340.636719 412.429688 C 342.644531 413.371094 344.671875 414.269531 346.714844 415.121094 C 348.761719 415.976562 350.824219 416.78125 352.90625 417.542969 C 354.988281 418.308594 357.082031 419.023438 359.195312 419.691406 C 361.308594 420.363281 363.433594 420.988281 365.574219 421.5625 C 367.714844 422.140625 369.867188 422.671875 372.027344 423.152344 C 374.191406 423.636719 376.363281 424.070312 378.546875 424.457031 C 380.726562 424.84375 382.917969 425.183594 385.113281 425.472656 C 387.3125 425.765625 389.515625 426.007812 391.722656 426.203125 C 393.929688 426.394531 396.140625 426.542969 398.355469 426.640625 C 400.570312 426.734375 402.785156 426.785156 405 426.785156 C 407.214844 426.785156 409.429688 426.734375 411.644531 426.640625 C 413.859375 426.542969 416.070312 426.394531 418.277344 426.203125 C 420.484375 426.007812 422.6875 425.765625 424.886719 425.472656 C 427.082031 425.183594 429.273438 424.84375 431.453125 424.457031 C 433.636719 424.070312 435.808594 423.636719 437.972656 423.152344 C 440.132812 422.671875 442.285156 422.140625 444.425781 421.5625 C 446.566406 420.988281 448.691406 420.363281 450.804688 419.691406 C 452.917969 419.023438 455.011719 418.308594 457.09375 417.542969 C 459.175781 416.78125 461.238281 415.976562 463.285156 415.121094 C 465.328125 414.269531 467.355469 413.371094 469.363281 412.429688 C 471.367188 411.488281 473.351562 410.503906 475.316406 409.472656 C 477.277344 408.445312 479.21875 407.375 481.132812 406.261719 C 483.050781 405.148438 484.941406 403.992188 486.804688 402.792969 C 488.671875 401.597656 490.507812 400.359375 492.320312 399.082031 C 494.128906 397.804688 495.914062 396.488281 497.664062 395.132812 C 499.417969 393.777344 501.140625 392.382812 502.832031 390.953125 C 585.097656 421.199219 642.429688 488.402344 642.429688 566.242188 C 642.429688 567.742188 642.394531 569.242188 642.320312 570.746094 C 642.242188 572.246094 642.132812 573.742188 641.984375 575.238281 C 641.835938 576.734375 641.652344 578.222656 641.433594 579.707031 C 641.210938 581.195312 640.953125 582.675781 640.660156 584.148438 C 640.367188 585.621094 640.039062 587.085938 639.671875 588.542969 C 639.308594 590 638.90625 591.449219 638.472656 592.886719 C 638.035156 594.324219 637.5625 595.75 637.058594 597.164062 C 636.550781 598.578125 636.011719 599.980469 635.4375 601.367188 C 634.863281 602.753906 634.253906 604.128906 633.609375 605.484375 C 632.96875 606.84375 632.292969 608.183594 631.585938 609.511719 C 630.878906 610.835938 630.136719 612.140625 629.367188 613.429688 C 628.59375 614.71875 627.792969 615.988281 626.957031 617.238281 C 626.125 618.488281 625.257812 619.714844 624.363281 620.921875 C 623.472656 622.128906 622.546875 623.3125 621.59375 624.476562 C 620.644531 625.636719 619.664062 626.773438 618.652344 627.890625 C 617.644531 629.003906 616.609375 630.089844 615.550781 631.152344 C 614.488281 632.21875 613.402344 633.253906 612.289062 634.261719 C 611.175781 635.273438 610.039062 636.253906 608.878906 637.207031 C 607.71875 638.164062 606.535156 639.085938 605.332031 639.984375 C 604.125 640.878906 602.898438 641.746094 601.648438 642.582031 C 600.402344 643.417969 599.132812 644.222656 597.847656 644.996094 C 596.558594 645.769531 595.253906 646.511719 593.929688 647.21875 C 592.605469 647.929688 591.261719 648.605469 589.90625 649.25 C 588.550781 649.894531 587.175781 650.503906 585.789062 651.082031 C 584.402344 651.660156 583.003906 652.199219 581.589844 652.707031 C 580.175781 653.214844 578.75 653.691406 577.3125 654.128906 C 575.875 654.566406 574.429688 654.96875 572.972656 655.335938 C 571.515625 655.703125 570.050781 656.035156 568.578125 656.328125 C 567.105469 656.625 565.625 656.882812 564.140625 657.109375 C 562.65625 657.332031 561.164062 657.515625 559.667969 657.667969 C 558.175781 657.816406 556.675781 657.929688 555.175781 658.007812 C 553.675781 658.082031 552.175781 658.121094 550.671875 658.125 Z M 550.671875 658.125 " fill-opacity="1" fill-rule="nonzero"/></svg>